<svg version="1" xmlns="http://www.w3.org/2000/svg" width="853.333" height="853.333" viewBox="0 0 640.000000 640.000000"><path d="M319 230.5c-8 2.9-27.5 9.9-43.3 15.6l-28.8 10.3.6 5.1c.3 2.7 1.2 11.1 2.1 18.5.8 7.4 3.3 29.2 5.4 48.5 2.2 19.2 4.3 37.6 4.7 40.8l.8 5.9 26 14.5c14.3 8 29.6 16.4 34 18.8l12.1 6.6 4.1 2.3 30.4-16.8c41-22.7 45.9-25.6 45.9-27 0-1.1 2.5-23.6 7.5-66.1 4.9-42.4 5.8-50.6 5.4-51-.3-.3-36.3-13.2-78-28.1-5.3-1.9-10.7-3.4-12-3.3-1.3.1-8.9 2.5-16.9 5.4zm19.8 19.7c1.1 2.4 9.2 20.7 18.2 40.8 8.9 20.1 17.2 38.7 18.5 41.5 9.1 19.9 16.5 37 16.5 38.2 0 1.8-19.5 1.9-20.7 0-.4-.6-3-6.8-5.8-13.7l-5-12.5-22.9-.5c-14.5-.3-23.4-.1-24.2.5-.7.5-3.4 6.4-6 13s-5.1 12.6-5.7 13.2c-1.2 1.6-20.7 1.8-20.7.2 0-1.3 2.2-6.4 21-48.4 8.4-18.7 19-42.6 23.7-53 4.7-10.5 8.9-20 9.4-21.3.5-1.2 1.1-2.2 1.3-2.2.3 0 1.4 1.9 2.4 4.2z"/><path d="M335.4 289.6c-.4 1-3.8 9.3-7.5 18.3-3.8 9-6.9 16.8-6.9 17.2 0 .5 7 .9 15.5.9s15.5-.4 15.5-.8c0-.5-2.1-5.8-4.6-11.8-2.5-6-5.7-13.8-7.1-17.4-3.1-7.8-4-9-4.9-6.4zM462 319.5V387h23l.2-47.8.3-47.7 12.9 20.5c7 11.3 18.4 29.3 25.2 40 6.8 10.7 14.4 23 17 27.3l4.6 7.8 11.7-.3 11.6-.3v-134l-11.2-.3-11.3-.3v47c0 25.8-.4 47.2-.8 47.5-.7.4-31.1-47.2-54.8-85.7l-5-8.2-11.7-.3-11.7-.3v67.6zM66 320.5V388h23l-.2-67.3-.3-67.2-11.2-.3-11.3-.3v67.6zM115 320.4V388h23v-52.1l13.1.3 13.1.3 3 5.5c1.6 3 7.6 14.6 13.4 25.7l10.5 20.3h12.5c6.8 0 12.4-.3 12.4-.6 0-.4-5-9.9-11.2-21.3-20.3-37.5-19.1-35.3-17.7-36.2.8-.5 1.8-.9 2.2-.9 2 0 11.9-8.4 14.5-12.2 6-8.9 8.2-20.5 5.8-31.6-2.7-13.1-7.9-20.2-18.7-25.7-9.8-5.1-14.4-5.7-46.1-6.2l-29.8-.5v67.6zm57.6-46.9c9.1 2.7 14.4 10.5 14.4 21 0 10.4-3.9 16.6-13 20.8-3.8 1.8-6.9 2.2-20.2 2.5l-15.8.4V272h14.8c10.2 0 16.4.5 19.8 1.5z"/></svg>